<svg xmlns="http://www.w3.org/2000/svg" width="1920" height="937" style="cursor: move;"><g transform="translate(-1.2973967099942456,-0.2973967099942456) scale(1.0000000000000002)"><path class="link" marker-end="" d="M640,278.5, 820,318.5" style="stroke-width: 0.8; stroke-opacity: 1; stroke: rgb(80, 80, 80);"></path><path class="link" marker-end="" d="M640,278.5, 820,358.5" style="stroke-width: 0.8; stroke-opacity: 1; stroke: rgb(80, 80, 80);"></path><path class="link" marker-end="" d="M640,278.5, 820,398.5" style="stroke-width: 0.8; stroke-opacity: 1; stroke: rgb(80, 80, 80);"></path><path class="link" marker-end="" d="M640,278.5, 820,438.5" style="stroke-width: 0.8; stroke-opacity: 1; stroke: rgb(80, 80, 80);"></path><path class="link" marker-end="" d="M640,278.5, 820,478.5" style="stroke-width: 0.8; stroke-opacity: 1; stroke: rgb(80, 80, 80);"></path><path class="link" marker-end="" d="M640,278.5, 820,518.5" style="stroke-width: 0.8; stroke-opacity: 1; stroke: rgb(80, 80, 80);"></path><path class="link" marker-end="" d="M640,278.5, 820,558.5" style="stroke-width: 0.8; stroke-opacity: 1; stroke: rgb(80, 80, 80);"></path><path class="link" marker-end="" d="M640,278.5, 820,598.5" style="stroke-width: 0.8; stroke-opacity: 1; stroke: rgb(80, 80, 80);"></path><path class="link" marker-end="" d="M640,318.5, 820,318.5" style="stroke-width: 0.8; stroke-opacity: 1; stroke: rgb(80, 80, 80);"></path><path class="link" marker-end="" d="M640,318.5, 820,358.5" style="stroke-width: 0.8; stroke-opacity: 1; stroke: rgb(80, 80, 80);"></path><path class="link" marker-end="" d="M640,318.5, 820,398.5" style="stroke-width: 0.8; stroke-opacity: 1; stroke: rgb(80, 80, 80);"></path><path class="link" marker-end="" d="M640,318.5, 820,438.5" style="stroke-width: 0.8; stroke-opacity: 1; stroke: rgb(80, 80, 80);"></path><path class="link" marker-end="" d="M640,318.5, 820,478.5" style="stroke-width: 0.8; stroke-opacity: 1; stroke: rgb(80, 80, 80);"></path><path class="link" marker-end="" d="M640,318.5, 820,518.5" style="stroke-width: 0.8; stroke-opacity: 1; stroke: rgb(80, 80, 80);"></path><path class="link" marker-end="" d="M640,318.5, 820,558.5" style="stroke-width: 0.8; stroke-opacity: 1; stroke: rgb(80, 80, 80);"></path><path class="link" marker-end="" d="M640,318.5, 820,598.5" style="stroke-width: 0.8; stroke-opacity: 1; stroke: rgb(80, 80, 80);"></path><path class="link" marker-end="" d="M640,358.5, 820,318.5" style="stroke-width: 0.8; stroke-opacity: 1; stroke: rgb(80, 80, 80);"></path><path class="link" marker-end="" d="M640,358.5, 820,358.5" style="stroke-width: 0.8; stroke-opacity: 1; stroke: rgb(80, 80, 80);"></path><path class="link" marker-end="" d="M640,358.5, 820,398.5" style="stroke-width: 0.8; stroke-opacity: 1; stroke: rgb(80, 80, 80);"></path><path class="link" marker-end="" d="M640,358.5, 820,438.5" style="stroke-width: 0.8; stroke-opacity: 1; stroke: rgb(80, 80, 80);"></path><path class="link" marker-end="" d="M640,358.5, 820,478.5" style="stroke-width: 0.8; stroke-opacity: 1; stroke: rgb(80, 80, 80);"></path><path class="link" marker-end="" d="M640,358.5, 820,518.5" style="stroke-width: 0.8; stroke-opacity: 1; stroke: rgb(80, 80, 80);"></path><path class="link" marker-end="" d="M640,358.5, 820,558.5" style="stroke-width: 0.8; stroke-opacity: 1; stroke: rgb(80, 80, 80);"></path><path class="link" marker-end="" d="M640,358.5, 820,598.5" style="stroke-width: 0.8; stroke-opacity: 1; stroke: rgb(80, 80, 80);"></path><path class="link" marker-end="" d="M640,398.5, 820,318.5" style="stroke-width: 0.8; stroke-opacity: 1; stroke: rgb(80, 80, 80);"></path><path class="link" marker-end="" d="M640,398.5, 820,358.5" style="stroke-width: 0.8; stroke-opacity: 1; stroke: rgb(80, 80, 80);"></path><path class="link" marker-end="" d="M640,398.5, 820,398.5" style="stroke-width: 0.8; stroke-opacity: 1; stroke: rgb(80, 80, 80);"></path><path class="link" marker-end="" d="M640,398.5, 820,438.5" style="stroke-width: 0.8; stroke-opacity: 1; stroke: rgb(80, 80, 80);"></path><path class="link" marker-end="" d="M640,398.5, 820,478.5" style="stroke-width: 0.8; stroke-opacity: 1; stroke: rgb(80, 80, 80);"></path><path class="link" marker-end="" d="M640,398.5, 820,518.5" style="stroke-width: 0.8; stroke-opacity: 1; stroke: rgb(80, 80, 80);"></path><path class="link" marker-end="" d="M640,398.5, 820,558.5" style="stroke-width: 0.8; stroke-opacity: 1; stroke: rgb(80, 80, 80);"></path><path class="link" marker-end="" d="M640,398.5, 820,598.5" style="stroke-width: 0.8; stroke-opacity: 1; stroke: rgb(80, 80, 80);"></path><path class="link" marker-end="" d="M640,438.5, 820,318.5" style="stroke-width: 0.8; stroke-opacity: 1; stroke: rgb(80, 80, 80);"></path><path class="link" marker-end="" d="M640,438.5, 820,358.5" style="stroke-width: 0.8; stroke-opacity: 1; stroke: rgb(80, 80, 80);"></path><path class="link" marker-end="" d="M640,438.5, 820,398.5" style="stroke-width: 0.8; stroke-opacity: 1; stroke: rgb(80, 80, 80);"></path><path class="link" marker-end="" d="M640,438.5, 820,438.5" style="stroke-width: 0.8; stroke-opacity: 1; stroke: rgb(80, 80, 80);"></path><path class="link" marker-end="" d="M640,438.5, 820,478.5" style="stroke-width: 0.8; stroke-opacity: 1; stroke: rgb(80, 80, 80);"></path><path class="link" marker-end="" d="M640,438.5, 820,518.5" style="stroke-width: 0.8; stroke-opacity: 1; stroke: rgb(80, 80, 80);"></path><path class="link" marker-end="" d="M640,438.5, 820,558.5" style="stroke-width: 0.8; stroke-opacity: 1; stroke: rgb(80, 80, 80);"></path><path class="link" marker-end="" d="M640,438.5, 820,598.5" style="stroke-width: 0.8; stroke-opacity: 1; stroke: rgb(80, 80, 80);"></path><path class="link" marker-end="" d="M640,478.5, 820,318.5" style="stroke-width: 0.8; stroke-opacity: 1; stroke: rgb(80, 80, 80);"></path><path class="link" marker-end="" d="M640,478.5, 820,358.5" style="stroke-width: 0.8; stroke-opacity: 1; stroke: rgb(80, 80, 80);"></path><path class="link" marker-end="" d="M640,478.5, 820,398.5" style="stroke-width: 0.8; stroke-opacity: 1; stroke: rgb(80, 80, 80);"></path><path class="link" marker-end="" d="M640,478.5, 820,438.5" style="stroke-width: 0.8; stroke-opacity: 1; stroke: rgb(80, 80, 80);"></path><path class="link" marker-end="" d="M640,478.5, 820,478.5" style="stroke-width: 0.8; stroke-opacity: 1; stroke: rgb(80, 80, 80);"></path><path class="link" marker-end="" d="M640,478.5, 820,518.5" style="stroke-width: 0.8; stroke-opacity: 1; stroke: rgb(80, 80, 80);"></path><path class="link" marker-end="" d="M640,478.5, 820,558.5" style="stroke-width: 0.8; stroke-opacity: 1; stroke: rgb(80, 80, 80);"></path><path class="link" marker-end="" d="M640,478.5, 820,598.5" style="stroke-width: 0.8; stroke-opacity: 1; stroke: rgb(80, 80, 80);"></path><path class="link" marker-end="" d="M640,518.5, 820,318.5" style="stroke-width: 0.8; stroke-opacity: 1; stroke: rgb(80, 80, 80);"></path><path class="link" marker-end="" d="M640,518.5, 820,358.5" style="stroke-width: 0.8; stroke-opacity: 1; stroke: rgb(80, 80, 80);"></path><path class="link" marker-end="" d="M640,518.5, 820,398.5" style="stroke-width: 0.8; stroke-opacity: 1; stroke: rgb(80, 80, 80);"></path><path class="link" marker-end="" d="M640,518.5, 820,438.5" style="stroke-width: 0.8; stroke-opacity: 1; stroke: rgb(80, 80, 80);"></path><path class="link" marker-end="" d="M640,518.5, 820,478.5" style="stroke-width: 0.8; stroke-opacity: 1; stroke: rgb(80, 80, 80);"></path><path class="link" marker-end="" d="M640,518.5, 820,518.5" style="stroke-width: 0.8; stroke-opacity: 1; stroke: rgb(80, 80, 80);"></path><path class="link" marker-end="" d="M640,518.5, 820,558.5" style="stroke-width: 0.8; stroke-opacity: 1; stroke: rgb(80, 80, 80);"></path><path class="link" marker-end="" d="M640,518.5, 820,598.5" style="stroke-width: 0.8; stroke-opacity: 1; stroke: rgb(80, 80, 80);"></path><path class="link" marker-end="" d="M640,558.5, 820,318.5" style="stroke-width: 0.8; stroke-opacity: 1; stroke: rgb(80, 80, 80);"></path><path class="link" marker-end="" d="M640,558.5, 820,358.5" style="stroke-width: 0.8; stroke-opacity: 1; stroke: rgb(80, 80, 80);"></path><path class="link" marker-end="" d="M640,558.5, 820,398.5" style="stroke-width: 0.8; stroke-opacity: 1; stroke: rgb(80, 80, 80);"></path><path class="link" marker-end="" d="M640,558.5, 820,438.5" style="stroke-width: 0.8; stroke-opacity: 1; stroke: rgb(80, 80, 80);"></path><path class="link" marker-end="" d="M640,558.5, 820,478.5" style="stroke-width: 0.8; stroke-opacity: 1; stroke: rgb(80, 80, 80);"></path><path class="link" marker-end="" d="M640,558.5, 820,518.5" style="stroke-width: 0.8; stroke-opacity: 1; stroke: rgb(80, 80, 80);"></path><path class="link" marker-end="" d="M640,558.5, 820,558.5" style="stroke-width: 0.8; stroke-opacity: 1; stroke: rgb(80, 80, 80);"></path><path class="link" marker-end="" d="M640,558.5, 820,598.5" style="stroke-width: 0.8; stroke-opacity: 1; stroke: rgb(80, 80, 80);"></path><path class="link" marker-end="" d="M640,598.5, 820,318.5" style="stroke-width: 0.8; stroke-opacity: 1; stroke: rgb(80, 80, 80);"></path><path class="link" marker-end="" d="M640,598.5, 820,358.5" style="stroke-width: 0.8; stroke-opacity: 1; stroke: rgb(80, 80, 80);"></path><path class="link" marker-end="" d="M640,598.5, 820,398.5" style="stroke-width: 0.8; stroke-opacity: 1; stroke: rgb(80, 80, 80);"></path><path class="link" marker-end="" d="M640,598.5, 820,438.5" style="stroke-width: 0.8; stroke-opacity: 1; stroke: rgb(80, 80, 80);"></path><path class="link" marker-end="" d="M640,598.5, 820,478.5" style="stroke-width: 0.8; stroke-opacity: 1; stroke: rgb(80, 80, 80);"></path><path class="link" marker-end="" d="M640,598.5, 820,518.5" style="stroke-width: 0.8; stroke-opacity: 1; stroke: rgb(80, 80, 80);"></path><path class="link" marker-end="" d="M640,598.5, 820,558.5" style="stroke-width: 0.8; stroke-opacity: 1; stroke: rgb(80, 80, 80);"></path><path class="link" marker-end="" d="M640,598.5, 820,598.5" style="stroke-width: 0.8; stroke-opacity: 1; stroke: rgb(80, 80, 80);"></path><path class="link" marker-end="" d="M640,638.5, 820,318.5" style="stroke-width: 0.8; stroke-opacity: 1; stroke: rgb(80, 80, 80);"></path><path class="link" marker-end="" d="M640,638.5, 820,358.5" style="stroke-width: 0.8; stroke-opacity: 1; stroke: rgb(80, 80, 80);"></path><path class="link" marker-end="" d="M640,638.5, 820,398.5" style="stroke-width: 0.8; stroke-opacity: 1; stroke: rgb(80, 80, 80);"></path><path class="link" marker-end="" d="M640,638.5, 820,438.5" style="stroke-width: 0.8; stroke-opacity: 1; stroke: rgb(80, 80, 80);"></path><path class="link" marker-end="" d="M640,638.5, 820,478.5" style="stroke-width: 0.8; stroke-opacity: 1; stroke: rgb(80, 80, 80);"></path><path class="link" marker-end="" d="M640,638.5, 820,518.5" style="stroke-width: 0.8; stroke-opacity: 1; stroke: rgb(80, 80, 80);"></path><path class="link" marker-end="" d="M640,638.5, 820,558.5" style="stroke-width: 0.8; stroke-opacity: 1; stroke: rgb(80, 80, 80);"></path><path class="link" marker-end="" d="M640,638.5, 820,598.5" style="stroke-width: 0.8; stroke-opacity: 1; stroke: rgb(80, 80, 80);"></path><path class="link" marker-end="" d="M820,318.5, 1000,358.5" style="stroke-width: 0.8; stroke-opacity: 1; stroke: rgb(80, 80, 80);"></path><path class="link" marker-end="" d="M820,318.5, 1000,398.5" style="stroke-width: 0.8; stroke-opacity: 1; stroke: rgb(80, 80, 80);"></path><path class="link" marker-end="" d="M820,318.5, 1000,438.5" style="stroke-width: 0.8; stroke-opacity: 1; stroke: rgb(80, 80, 80);"></path><path class="link" marker-end="" d="M820,318.5, 1000,478.5" style="stroke-width: 0.8; stroke-opacity: 1; stroke: rgb(80, 80, 80);"></path><path class="link" marker-end="" d="M820,318.5, 1000,518.5" style="stroke-width: 0.8; stroke-opacity: 1; stroke: rgb(80, 80, 80);"></path><path class="link" marker-end="" d="M820,318.5, 1000,558.5" style="stroke-width: 0.8; stroke-opacity: 1; stroke: rgb(80, 80, 80);"></path><path class="link" marker-end="" d="M820,358.5, 1000,358.5" style="stroke-width: 0.8; stroke-opacity: 1; stroke: rgb(80, 80, 80);"></path><path class="link" marker-end="" d="M820,358.5, 1000,398.5" style="stroke-width: 0.8; stroke-opacity: 1; stroke: rgb(80, 80, 80);"></path><path class="link" marker-end="" d="M820,358.5, 1000,438.5" style="stroke-width: 0.8; stroke-opacity: 1; stroke: rgb(80, 80, 80);"></path><path class="link" marker-end="" d="M820,358.5, 1000,478.5" style="stroke-width: 0.8; stroke-opacity: 1; stroke: rgb(80, 80, 80);"></path><path class="link" marker-end="" d="M820,358.5, 1000,518.5" style="stroke-width: 0.8; stroke-opacity: 1; stroke: rgb(80, 80, 80);"></path><path class="link" marker-end="" d="M820,358.5, 1000,558.5" style="stroke-width: 0.8; stroke-opacity: 1; stroke: rgb(80, 80, 80);"></path><path class="link" marker-end="" d="M820,398.5, 1000,358.5" style="stroke-width: 0.8; stroke-opacity: 1; stroke: rgb(80, 80, 80);"></path><path class="link" marker-end="" d="M820,398.5, 1000,398.5" style="stroke-width: 0.8; stroke-opacity: 1; stroke: rgb(80, 80, 80);"></path><path class="link" marker-end="" d="M820,398.5, 1000,438.5" style="stroke-width: 0.8; stroke-opacity: 1; stroke: rgb(80, 80, 80);"></path><path class="link" marker-end="" d="M820,398.5, 1000,478.5" style="stroke-width: 0.8; stroke-opacity: 1; stroke: rgb(80, 80, 80);"></path><path class="link" marker-end="" d="M820,398.5, 1000,518.5" style="stroke-width: 0.8; stroke-opacity: 1; stroke: rgb(80, 80, 80);"></path><path class="link" marker-end="" d="M820,398.5, 1000,558.5" style="stroke-width: 0.8; stroke-opacity: 1; stroke: rgb(80, 80, 80);"></path><path class="link" marker-end="" d="M820,438.5, 1000,358.5" style="stroke-width: 0.8; stroke-opacity: 1; stroke: rgb(80, 80, 80);"></path><path class="link" marker-end="" d="M820,438.5, 1000,398.5" style="stroke-width: 0.8; stroke-opacity: 1; stroke: rgb(80, 80, 80);"></path><path class="link" marker-end="" d="M820,438.5, 1000,438.5" style="stroke-width: 0.8; stroke-opacity: 1; stroke: rgb(80, 80, 80);"></path><path class="link" marker-end="" d="M820,438.5, 1000,478.5" style="stroke-width: 0.8; stroke-opacity: 1; stroke: rgb(80, 80, 80);"></path><path class="link" marker-end="" d="M820,438.5, 1000,518.5" style="stroke-width: 0.8; stroke-opacity: 1; stroke: rgb(80, 80, 80);"></path><path class="link" marker-end="" d="M820,438.5, 1000,558.5" style="stroke-width: 0.8; stroke-opacity: 1; stroke: rgb(80, 80, 80);"></path><path class="link" marker-end="" d="M820,478.5, 1000,358.5" style="stroke-width: 0.8; stroke-opacity: 1; stroke: rgb(80, 80, 80);"></path><path class="link" marker-end="" d="M820,478.5, 1000,398.5" style="stroke-width: 0.8; stroke-opacity: 1; stroke: rgb(80, 80, 80);"></path><path class="link" marker-end="" d="M820,478.5, 1000,438.5" style="stroke-width: 0.8; stroke-opacity: 1; stroke: rgb(80, 80, 80);"></path><path class="link" marker-end="" d="M820,478.5, 1000,478.5" style="stroke-width: 0.8; stroke-opacity: 1; stroke: rgb(80, 80, 80);"></path><path class="link" marker-end="" d="M820,478.5, 1000,518.5" style="stroke-width: 0.8; stroke-opacity: 1; stroke: rgb(80, 80, 80);"></path><path class="link" marker-end="" d="M820,478.5, 1000,558.5" style="stroke-width: 0.8; stroke-opacity: 1; stroke: rgb(80, 80, 80);"></path><path class="link" marker-end="" d="M820,518.5, 1000,358.5" style="stroke-width: 0.8; stroke-opacity: 1; stroke: rgb(80, 80, 80);"></path><path class="link" marker-end="" d="M820,518.5, 1000,398.5" style="stroke-width: 0.8; stroke-opacity: 1; stroke: rgb(80, 80, 80);"></path><path class="link" marker-end="" d="M820,518.5, 1000,438.5" style="stroke-width: 0.8; stroke-opacity: 1; stroke: rgb(80, 80, 80);"></path><path class="link" marker-end="" d="M820,518.5, 1000,478.5" style="stroke-width: 0.8; stroke-opacity: 1; stroke: rgb(80, 80, 80);"></path><path class="link" marker-end="" d="M820,518.5, 1000,518.5" style="stroke-width: 0.8; stroke-opacity: 1; stroke: rgb(80, 80, 80);"></path><path class="link" marker-end="" d="M820,518.5, 1000,558.5" style="stroke-width: 0.8; stroke-opacity: 1; stroke: rgb(80, 80, 80);"></path><path class="link" marker-end="" d="M820,558.5, 1000,358.5" style="stroke-width: 0.8; stroke-opacity: 1; stroke: rgb(80, 80, 80);"></path><path class="link" marker-end="" d="M820,558.5, 1000,398.5" style="stroke-width: 0.8; stroke-opacity: 1; stroke: rgb(80, 80, 80);"></path><path class="link" marker-end="" d="M820,558.5, 1000,438.5" style="stroke-width: 0.8; stroke-opacity: 1; stroke: rgb(80, 80, 80);"></path><path class="link" marker-end="" d="M820,558.5, 1000,478.5" style="stroke-width: 0.8; stroke-opacity: 1; stroke: rgb(80, 80, 80);"></path><path class="link" marker-end="" d="M820,558.5, 1000,518.5" style="stroke-width: 0.8; stroke-opacity: 1; stroke: rgb(80, 80, 80);"></path><path class="link" marker-end="" d="M820,558.5, 1000,558.5" style="stroke-width: 0.8; stroke-opacity: 1; stroke: rgb(80, 80, 80);"></path><path class="link" marker-end="" d="M820,598.5, 1000,358.5" style="stroke-width: 0.8; stroke-opacity: 1; stroke: rgb(80, 80, 80);"></path><path class="link" marker-end="" d="M820,598.5, 1000,398.5" style="stroke-width: 0.8; stroke-opacity: 1; stroke: rgb(80, 80, 80);"></path><path class="link" marker-end="" d="M820,598.5, 1000,438.5" style="stroke-width: 0.8; stroke-opacity: 1; stroke: rgb(80, 80, 80);"></path><path class="link" marker-end="" d="M820,598.5, 1000,478.5" style="stroke-width: 0.8; stroke-opacity: 1; stroke: rgb(80, 80, 80);"></path><path class="link" marker-end="" d="M820,598.5, 1000,518.5" style="stroke-width: 0.8; stroke-opacity: 1; stroke: rgb(80, 80, 80);"></path><path class="link" marker-end="" d="M820,598.5, 1000,558.5" style="stroke-width: 0.8; stroke-opacity: 1; stroke: rgb(80, 80, 80);"></path><path class="link" marker-end="" d="M1000,358.5, 1180,358.5" style="stroke-width: 0.8; stroke-opacity: 1; stroke: rgb(80, 80, 80);"></path><path class="link" marker-end="" d="M1000,398.5, 1180,358.5" style="stroke-width: 0.8; stroke-opacity: 1; stroke: rgb(80, 80, 80);"></path><path class="link" marker-end="" d="M1000,438.5, 1180,358.5" style="stroke-width: 0.8; stroke-opacity: 1; stroke: rgb(80, 80, 80);"></path><path class="link" marker-end="" d="M1000,478.5, 1180,358.5" style="stroke-width: 0.8; stroke-opacity: 1; stroke: rgb(80, 80, 80);"></path><path class="link" marker-end="" d="M1000,518.5, 1180,358.5" style="stroke-width: 0.8; stroke-opacity: 1; stroke: rgb(80, 80, 80);"></path><path class="link" marker-end="" d="M1000,558.5, 1180,358.5" style="stroke-width: 0.8; stroke-opacity: 1; stroke: rgb(80, 80, 80);"></path><path class="link" marker-end="" d="M1000,358.5, 1180,398.5" style="stroke-width: 0.8; stroke-opacity: 1; stroke: rgb(80, 80, 80);"></path><path class="link" marker-end="" d="M1000,398.5, 1180,398.5" style="stroke-width: 0.8; stroke-opacity: 1; stroke: rgb(80, 80, 80);"></path><path class="link" marker-end="" d="M1000,438.5, 1180,398.5" style="stroke-width: 0.8; stroke-opacity: 1; stroke: rgb(80, 80, 80);"></path><path class="link" marker-end="" d="M1000,478.5, 1180,398.5" style="stroke-width: 0.8; stroke-opacity: 1; stroke: rgb(80, 80, 80);"></path><path class="link" marker-end="" d="M1000,518.5, 1180,398.5" style="stroke-width: 0.8; stroke-opacity: 1; stroke: rgb(80, 80, 80);"></path><path class="link" marker-end="" d="M1000,558.5, 1180,398.5" style="stroke-width: 0.8; stroke-opacity: 1; stroke: rgb(80, 80, 80);"></path><path class="link" marker-end="" d="M1000,358.5, 1180,438.5" style="stroke-width: 0.8; stroke-opacity: 1; stroke: rgb(80, 80, 80);"></path><path class="link" marker-end="" d="M1000,398.5, 1180,438.5" style="stroke-width: 0.8; stroke-opacity: 1; stroke: rgb(80, 80, 80);"></path><path class="link" marker-end="" d="M1000,438.5, 1180,438.5" style="stroke-width: 0.8; stroke-opacity: 1; stroke: rgb(80, 80, 80);"></path><path class="link" marker-end="" d="M1000,478.5, 1180,438.5" style="stroke-width: 0.8; stroke-opacity: 1; stroke: rgb(80, 80, 80);"></path><path class="link" marker-end="" d="M1000,518.5, 1180,438.5" style="stroke-width: 0.8; stroke-opacity: 1; stroke: rgb(80, 80, 80);"></path><path class="link" marker-end="" d="M1000,558.5, 1180,438.5" style="stroke-width: 0.8; stroke-opacity: 1; stroke: rgb(80, 80, 80);"></path><path class="link" marker-end="" d="M1000,358.5, 1180,478.5" style="stroke-width: 0.8; stroke-opacity: 1; stroke: rgb(80, 80, 80);"></path><path class="link" marker-end="" d="M1000,398.5, 1180,478.5" style="stroke-width: 0.8; stroke-opacity: 1; stroke: rgb(80, 80, 80);"></path><path class="link" marker-end="" d="M1000,438.5, 1180,478.5" style="stroke-width: 0.8; stroke-opacity: 1; stroke: rgb(80, 80, 80);"></path><path class="link" marker-end="" d="M1000,478.5, 1180,478.5" style="stroke-width: 0.8; stroke-opacity: 1; stroke: rgb(80, 80, 80);"></path><path class="link" marker-end="" d="M1000,518.5, 1180,478.5" style="stroke-width: 0.8; stroke-opacity: 1; stroke: rgb(80, 80, 80);"></path><path class="link" marker-end="" d="M1000,558.5, 1180,478.5" style="stroke-width: 0.8; stroke-opacity: 1; stroke: rgb(80, 80, 80);"></path><path class="link" marker-end="" d="M1000,358.5, 1180,518.5" style="stroke-width: 0.8; stroke-opacity: 1; stroke: rgb(80, 80, 80);"></path><path class="link" marker-end="" d="M1000,398.5, 1180,518.5" style="stroke-width: 0.8; stroke-opacity: 1; stroke: rgb(80, 80, 80);"></path><path class="link" marker-end="" d="M1000,438.5, 1180,518.5" style="stroke-width: 0.8; stroke-opacity: 1; stroke: rgb(80, 80, 80);"></path><path class="link" marker-end="" d="M1000,478.5, 1180,518.5" style="stroke-width: 0.8; stroke-opacity: 1; stroke: rgb(80, 80, 80);"></path><path class="link" marker-end="" d="M1000,518.5, 1180,518.5" style="stroke-width: 0.8; stroke-opacity: 1; stroke: rgb(80, 80, 80);"></path><path class="link" marker-end="" d="M1000,558.5, 1180,518.5" style="stroke-width: 0.8; stroke-opacity: 1; stroke: rgb(80, 80, 80);"></path><path class="link" marker-end="" d="M1000,358.5, 1180,558.5" style="stroke-width: 0.8; stroke-opacity: 1; stroke: rgb(80, 80, 80);"></path><path class="link" marker-end="" d="M1000,398.5, 1180,558.5" style="stroke-width: 0.8; stroke-opacity: 1; stroke: rgb(80, 80, 80);"></path><path class="link" marker-end="" d="M1000,438.5, 1180,558.5" style="stroke-width: 0.8; stroke-opacity: 1; stroke: rgb(80, 80, 80);"></path><path class="link" marker-end="" d="M1000,478.5, 1180,558.5" style="stroke-width: 0.8; stroke-opacity: 1; stroke: rgb(80, 80, 80);"></path><path class="link" marker-end="" d="M1000,518.5, 1180,558.5" style="stroke-width: 0.8; stroke-opacity: 1; stroke: rgb(80, 80, 80);"></path><path class="link" marker-end="" d="M1000,558.5, 1180,558.5" style="stroke-width: 0.8; stroke-opacity: 1; stroke: rgb(80, 80, 80);"></path><path class="link" marker-end="" d="M1180,358.5, 1360,398.5" style="stroke-width: 0.8; stroke-opacity: 1; stroke: rgb(80, 80, 80);"></path><path class="link" marker-end="" d="M1180,398.5, 1360,398.5" style="stroke-width: 0.8; stroke-opacity: 1; stroke: rgb(80, 80, 80);"></path><path class="link" marker-end="" d="M1180,438.5, 1360,398.5" style="stroke-width: 0.8; stroke-opacity: 1; stroke: rgb(80, 80, 80);"></path><path class="link" marker-end="" d="M1180,478.5, 1360,398.5" style="stroke-width: 0.8; stroke-opacity: 1; stroke: rgb(80, 80, 80);"></path><path class="link" marker-end="" d="M1180,518.5, 1360,398.5" style="stroke-width: 0.8; stroke-opacity: 1; stroke: rgb(80, 80, 80);"></path><path class="link" marker-end="" d="M1180,558.5, 1360,398.5" style="stroke-width: 0.8; stroke-opacity: 1; stroke: rgb(80, 80, 80);"></path><path class="link" marker-end="" d="M1180,358.5, 1360,438.5" style="stroke-width: 0.8; stroke-opacity: 1; stroke: rgb(80, 80, 80);"></path><path class="link" marker-end="" d="M1180,398.5, 1360,438.5" style="stroke-width: 0.8; stroke-opacity: 1; stroke: rgb(80, 80, 80);"></path><path class="link" marker-end="" d="M1180,438.5, 1360,438.5" style="stroke-width: 0.8; stroke-opacity: 1; stroke: rgb(80, 80, 80);"></path><path class="link" marker-end="" d="M1180,478.5, 1360,438.5" style="stroke-width: 0.8; stroke-opacity: 1; stroke: rgb(80, 80, 80);"></path><path class="link" marker-end="" d="M1180,518.5, 1360,438.5" style="stroke-width: 0.8; stroke-opacity: 1; stroke: rgb(80, 80, 80);"></path><path class="link" marker-end="" d="M1180,558.5, 1360,438.5" style="stroke-width: 0.8; stroke-opacity: 1; stroke: rgb(80, 80, 80);"></path><path class="link" marker-end="" d="M1180,358.5, 1360,478.5" style="stroke-width: 0.8; stroke-opacity: 1; stroke: rgb(80, 80, 80);"></path><path class="link" marker-end="" d="M1180,398.5, 1360,478.5" style="stroke-width: 0.8; stroke-opacity: 1; stroke: rgb(80, 80, 80);"></path><path class="link" marker-end="" d="M1180,438.5, 1360,478.5" style="stroke-width: 0.8; stroke-opacity: 1; stroke: rgb(80, 80, 80);"></path><path class="link" marker-end="" d="M1180,478.5, 1360,478.5" style="stroke-width: 0.8; stroke-opacity: 1; stroke: rgb(80, 80, 80);"></path><path class="link" marker-end="" d="M1180,518.5, 1360,478.5" style="stroke-width: 0.8; stroke-opacity: 1; stroke: rgb(80, 80, 80);"></path><path class="link" marker-end="" d="M1180,558.5, 1360,478.5" style="stroke-width: 0.8; stroke-opacity: 1; stroke: rgb(80, 80, 80);"></path><path class="link" marker-end="" d="M1180,358.5, 1360,518.5" style="stroke-width: 0.8; stroke-opacity: 1; stroke: rgb(80, 80, 80);"></path><path class="link" marker-end="" d="M1180,398.5, 1360,518.5" style="stroke-width: 0.8; stroke-opacity: 1; stroke: rgb(80, 80, 80);"></path><path class="link" marker-end="" d="M1180,438.5, 1360,518.5" style="stroke-width: 0.8; stroke-opacity: 1; stroke: rgb(80, 80, 80);"></path><path class="link" marker-end="" d="M1180,478.5, 1360,518.5" style="stroke-width: 0.8; stroke-opacity: 1; stroke: rgb(80, 80, 80);"></path><path class="link" marker-end="" d="M1180,518.5, 1360,518.5" style="stroke-width: 0.8; stroke-opacity: 1; stroke: rgb(80, 80, 80);"></path><path class="link" marker-end="" d="M1180,558.5, 1360,518.5" style="stroke-width: 0.8; stroke-opacity: 1; stroke: rgb(80, 80, 80);"></path><path class="link" marker-end="" d="M1360,398.5, 1540,438.5" style="stroke-width: 0.8; stroke-opacity: 1; stroke: rgb(80, 80, 80);"></path><path class="link" marker-end="" d="M1360,438.5, 1540,438.5" style="stroke-width: 0.8; stroke-opacity: 1; stroke: rgb(80, 80, 80);"></path><path class="link" marker-end="" d="M1360,478.5, 1540,438.5" style="stroke-width: 0.8; stroke-opacity: 1; stroke: rgb(80, 80, 80);"></path><path class="link" marker-end="" d="M1360,518.5, 1540,438.5" style="stroke-width: 0.8; stroke-opacity: 1; stroke: rgb(80, 80, 80);"></path><path class="link" marker-end="" d="M1360,398.5, 1540,478.5" style="stroke-width: 0.8; stroke-opacity: 1; stroke: rgb(80, 80, 80);"></path><path class="link" marker-end="" d="M1360,438.5, 1540,478.5" style="stroke-width: 0.8; stroke-opacity: 1; stroke: rgb(80, 80, 80);"></path><path class="link" marker-end="" d="M1360,478.5, 1540,478.5" style="stroke-width: 0.8; stroke-opacity: 1; stroke: rgb(80, 80, 80);"></path><path class="link" marker-end="" d="M1360,518.5, 1540,478.5" style="stroke-width: 0.8; stroke-opacity: 1; stroke: rgb(80, 80, 80);"></path><circle r="10" class="node" id="0_0" cx="640" cy="278.5" style="fill: rgb(255, 255, 255); stroke: rgb(240, 15, 15);"></circle><circle r="10" class="node" id="0_1" cx="640" cy="318.5" style="fill: rgb(255, 255, 255); stroke: rgb(240, 15, 15);"></circle><circle r="10" class="node" id="0_2" cx="640" cy="358.5" style="fill: rgb(255, 255, 255); stroke: rgb(240, 15, 15);"></circle><circle r="10" class="node" id="0_3" cx="640" cy="398.5" style="fill: rgb(255, 255, 255); stroke: rgb(240, 15, 15);"></circle><circle r="10" class="node" id="0_4" cx="640" cy="438.5" style="fill: rgb(255, 255, 255); stroke: rgb(240, 15, 15);"></circle><circle r="10" class="node" id="0_5" cx="640" cy="478.5" style="fill: rgb(255, 255, 255); stroke: rgb(240, 15, 15);"></circle><circle r="10" class="node" id="0_6" cx="640" cy="518.5" style="fill: rgb(255, 255, 255); stroke: rgb(240, 15, 15);"></circle><circle r="10" class="node" id="0_7" cx="640" cy="558.5" style="fill: rgb(255, 255, 255); stroke: rgb(240, 15, 15);"></circle><circle r="10" class="node" id="0_8" cx="640" cy="598.5" style="fill: rgb(255, 255, 255); stroke: rgb(240, 15, 15);"></circle><circle r="10" class="node" id="0_9" cx="640" cy="638.5" style="fill: rgb(255, 255, 255); stroke: rgb(240, 15, 15);"></circle><circle r="10" class="node" id="1_0" cx="820" cy="318.5" style="fill: rgb(255, 255, 255); stroke: rgb(240, 15, 15);"></circle><circle r="10" class="node" id="1_1" cx="820" cy="358.5" style="fill: rgb(255, 255, 255); stroke: rgb(240, 15, 15);"></circle><circle r="10" class="node" id="1_2" cx="820" cy="398.5" style="fill: rgb(255, 255, 255); stroke: rgb(240, 15, 15);"></circle><circle r="10" class="node" id="1_3" cx="820" cy="438.5" style="fill: rgb(255, 255, 255); stroke: rgb(240, 15, 15);"></circle><circle r="10" class="node" id="1_4" cx="820" cy="478.5" style="fill: rgb(255, 255, 255); stroke: rgb(240, 15, 15);"></circle><circle r="10" class="node" id="1_5" cx="820" cy="518.5" style="fill: rgb(255, 255, 255); stroke: rgb(240, 15, 15);"></circle><circle r="10" class="node" id="1_6" cx="820" cy="558.5" style="fill: rgb(255, 255, 255); stroke: rgb(240, 15, 15);"></circle><circle r="10" class="node" id="1_7" cx="820" cy="598.5" style="fill: rgb(255, 255, 255); stroke: rgb(240, 15, 15);"></circle><circle r="10" class="node" id="2_0" cx="1000" cy="358.5" style="fill: rgb(255, 255, 255); stroke: rgb(240, 15, 15);"></circle><circle r="10" class="node" id="2_1" cx="1000" cy="398.5" style="fill: rgb(255, 255, 255); stroke: rgb(240, 15, 15);"></circle><circle r="10" class="node" id="2_2" cx="1000" cy="438.5" style="fill: rgb(255, 255, 255); stroke: rgb(240, 15, 15);"></circle><circle r="10" class="node" id="2_3" cx="1000" cy="478.5" style="fill: rgb(255, 255, 255); stroke: rgb(240, 15, 15);"></circle><circle r="10" class="node" id="2_4" cx="1000" cy="518.5" style="fill: rgb(255, 255, 255); stroke: rgb(240, 15, 15);"></circle><circle r="10" class="node" id="2_5" cx="1000" cy="558.5" style="fill: rgb(255, 255, 255); stroke: rgb(240, 15, 15);"></circle><circle r="10" class="node" id="3_0" cx="1180" cy="358.5" style="fill: rgb(255, 255, 255); stroke: rgb(240, 15, 15);"></circle><text class="text" dy=".35em" x="605" y="678.5" style="font-size: 12px;">Input Layer ∈ ℝ¹⁰</text><text class="text" dy=".35em" x="785" y="678.5" style="font-size: 12px;">Hidden Layer ∈ ℝ⁸</text><text class="text" dy=".35em" x="965" y="678.5" style="font-size: 12px;">Hidden Layer ∈ ℝ⁶</text><text class="text" dy=".35em" x="1145" y="678.5" style="font-size: 12px;">Hidden Layer ∈ ℝ⁶</text><circle r="10" class="node" id="3_1" cx="1180" cy="398.5" style="fill: rgb(255, 255, 255); stroke: rgb(240, 15, 15);"></circle><circle r="10" class="node" id="3_2" cx="1180" cy="438.5" style="fill: rgb(255, 255, 255); stroke: rgb(240, 15, 15);"></circle><circle r="10" class="node" id="3_3" cx="1180" cy="478.5" style="fill: rgb(255, 255, 255); stroke: rgb(240, 15, 15);"></circle><circle r="10" class="node" id="3_4" cx="1180" cy="518.5" style="fill: rgb(255, 255, 255); stroke: rgb(240, 15, 15);"></circle><circle r="10" class="node" id="3_5" cx="1180" cy="558.5" style="fill: rgb(255, 255, 255); stroke: rgb(240, 15, 15);"></circle><text class="text" dy=".35em" x="1325" y="678.5" style="font-size: 12px;">Hidden Layer ∈ ℝ⁴</text><circle r="10" class="node" id="4_0" cx="1360" cy="398.5" style="fill: rgb(255, 255, 255); stroke: rgb(240, 15, 15);"></circle><circle r="10" class="node" id="4_1" cx="1360" cy="438.5" style="fill: rgb(255, 255, 255); stroke: rgb(240, 15, 15);"></circle><circle r="10" class="node" id="4_2" cx="1360" cy="478.5" style="fill: rgb(255, 255, 255); stroke: rgb(240, 15, 15);"></circle><circle r="10" class="node" id="4_3" cx="1360" cy="518.5" style="fill: rgb(255, 255, 255); stroke: rgb(240, 15, 15);"></circle><circle r="10" class="node" id="5_0" cx="1540" cy="438.5" style="fill: rgb(255, 255, 255); stroke: rgb(240, 15, 15);"></circle><text class="text" dy=".35em" x="1505" y="678.5" style="font-size: 12px;">Output Layer ∈ ℝ²</text><circle r="10" class="node" id="5_1" cx="1540" cy="478.5" style="fill: rgb(255, 255, 255); stroke: rgb(240, 15, 15);"></circle></g><defs><marker id="arrow" viewBox="0 -5 10 10" markerWidth="7" markerHeight="7" orient="auto" refX="40"><path d="M0,-5L10,0L0,5" style="stroke: rgb(80, 80, 80); fill: none;"></path></marker></defs></svg>